<svg width="37" height="47" viewBox="0 0 37 47" fill="none" xmlns="http://www.w3.org/2000/svg">
<path d="M18.5 0C8.325 0 0 8.29579 0 18.4351C0 30.8788 16.1875 44.9355 16.8813 45.6268C17.3438 45.8573 18.0375 46.0877 18.5 46.0877C18.9625 46.0877 19.6562 45.8573 20.1187 45.6268C20.8125 44.9355 37 30.8788 37 18.4351C37 8.29579 28.675 0 18.5 0Z" fill="#0D0D0D"/>
<path fill-rule="evenodd" clip-rule="evenodd" d="M14.929 6.49171H16.0926C16.5317 7.95095 16.9743 9.40722 17.4153 10.865C17.4153 10.8675 17.4163 10.8675 17.4178 10.8675C17.7304 10.7768 18.1029 10.7119 18.5045 10.6995C19.0286 10.6832 19.5416 10.7416 19.9672 10.8387C19.9777 10.8412 19.9852 10.8432 19.9992 10.8442C20.9418 9.39483 21.883 7.94451 22.8216 6.49171H24.0168C23.6717 6.63733 23.4592 6.93701 23.2482 7.2243C22.6141 8.08667 21.9985 8.96737 21.3694 9.83617C21.1074 10.1983 20.8498 10.5628 20.5903 10.9284C20.5728 10.9526 20.5518 10.9744 20.5398 11.0017C21.1034 11.1959 21.5894 11.4742 22.016 11.813C22.0375 11.8299 22.093 11.8665 22.0955 11.8839C22.097 11.8943 22.078 11.9443 22.0745 11.9601C21.9785 12.3425 21.885 12.7235 21.7885 13.0994C21.781 13.1078 21.7815 13.093 21.7805 13.0915C21.7595 13.0593 21.7379 13.0167 21.7169 12.981C21.6444 12.8587 21.5589 12.7413 21.4729 12.6269C21.1339 12.1746 20.6908 11.7992 20.1637 11.5297C20.1412 11.5505 20.1257 11.5787 20.1082 11.603C19.7042 12.1707 19.2941 12.7428 18.889 13.3144C18.746 13.5165 18.622 13.728 18.518 13.9628C18.4135 14.1995 18.327 14.4531 18.2554 14.7186C18.2194 14.8534 18.1889 14.9911 18.1574 15.1308C18.1269 15.2675 18.0919 15.4042 18.0619 15.5429C17.9404 16.1021 17.8169 16.6638 17.6934 17.2176C17.8294 17.384 17.9719 17.5509 18.1094 17.7189C18.1284 17.7421 18.1449 17.7664 18.1679 17.7842C18.339 16.9982 18.515 16.2036 18.6845 15.4057C18.7115 15.2779 18.74 15.1273 18.7295 14.9752C18.7195 14.8301 18.687 14.7236 18.6155 14.6364C18.6145 14.6349 18.5995 14.6225 18.61 14.623H20.2877C20.0227 15.7256 19.7467 16.8223 19.4796 17.9333C19.3981 18.2721 19.3101 18.6223 19.2281 18.9701C19.2221 18.9948 19.2086 19.0226 19.2096 19.0354C19.2106 19.0483 19.2321 19.0681 19.2496 19.0879C19.4581 19.3302 19.6682 19.5803 19.8647 19.8334C20.0762 20.1059 20.2872 20.3887 20.4533 20.6973C20.6228 21.0128 20.7593 21.365 20.7923 21.8078C20.8283 22.2868 20.7418 22.7157 20.6333 23.0808C20.4138 23.8188 20.0322 24.4162 19.5306 24.8813C19.0181 25.3573 18.375 25.6813 17.5508 25.8423C17.3503 26.6571 17.1478 27.4769 16.9493 28.3021C16.9363 28.3556 16.9193 28.4145 16.9068 28.4779C16.8948 28.5388 16.8848 28.6191 16.9043 28.6696C16.9243 28.7226 16.9823 28.7419 17.0633 28.7459C17.1368 28.7494 17.2238 28.7459 17.2993 28.7459C18.0879 28.7459 18.8435 28.7256 19.5626 28.6617C19.8507 28.6359 20.1332 28.6047 20.4083 28.57C21.5219 28.4289 22.5971 28.2471 23.6122 28.0242C23.6197 28.0296 23.6082 28.0376 23.6067 28.04C23.4387 28.3293 23.2607 28.6221 23.0871 28.9113C23.0276 29.0109 22.9676 29.1124 22.9096 29.2105H15.468C15.6526 29.0451 15.7516 28.785 15.8151 28.5071C16.0096 27.6586 16.1937 26.7834 16.3847 25.9344C15.9966 25.922 15.6476 25.8522 15.327 25.761C14.7694 25.6025 14.2829 25.3717 13.8403 25.0968C13.5273 24.9026 13.2297 24.6906 12.9817 24.4246V24.4142C13.1037 23.9432 13.2167 23.4637 13.3392 22.9941C13.6018 23.6376 14.0213 24.1542 14.5319 24.5668C14.7849 24.7709 15.0655 24.9442 15.3825 25.0998C15.5376 25.176 15.7051 25.239 15.8836 25.2915C16.0726 25.3469 16.2757 25.393 16.4987 25.3989C16.5012 25.3989 16.5017 25.397 16.5042 25.3965C16.7202 24.3845 16.9503 23.3735 17.1693 22.3621C17.3803 21.3868 17.6049 20.3986 17.8109 19.4193C17.8179 19.3861 17.8349 19.3425 17.8319 19.3247C17.8289 19.3049 17.7914 19.2762 17.7734 19.2564C17.6679 19.14 17.5723 19.0315 17.4713 18.9205C17.4353 18.8814 17.4008 18.8398 17.3653 18.8051C17.3628 18.8021 17.3563 18.7878 17.3493 18.7972C17.2458 19.2866 17.1363 19.7898 17.0288 20.2802C16.9698 20.5497 16.9318 20.9662 17.0818 21.1594C17.0873 21.1664 17.1053 21.1772 17.0948 21.1832H15.5446C15.6561 21.1148 15.7336 21.0138 15.7911 20.8944C15.8511 20.7706 15.8841 20.6299 15.9131 20.4798C16.0866 19.5808 16.2417 18.6555 16.4062 17.7525C16.2047 17.5306 16.0046 17.3112 15.8021 17.0913C15.6006 16.8718 15.3875 16.6633 15.203 16.4221C15.021 16.1833 14.866 15.9168 14.7469 15.6107C14.6274 15.3031 14.5509 14.9569 14.5509 14.5423C14.5509 14.1277 14.6199 13.7731 14.7204 13.4476C14.82 13.1257 14.9645 12.8404 15.1235 12.5838C15.4495 12.0577 15.8771 11.6461 16.3957 11.3187C16.2307 10.704 16.0741 10.0685 15.9081 9.44982C15.8526 9.24227 15.7986 9.03324 15.7466 8.82521C15.6436 8.41507 15.5301 7.99107 15.423 7.57549C15.3155 7.15793 15.224 6.72055 14.93 6.49121L14.929 6.49171ZM18.4275 11.1221C18.0964 11.1374 17.8004 11.2097 17.5478 11.3004C17.7744 12.0572 18.0049 12.8091 18.2314 13.566C18.2514 13.5482 18.2619 13.5224 18.2765 13.5006C18.719 12.824 19.1596 12.137 19.5991 11.4609C19.6246 11.4212 19.6586 11.3781 19.6812 11.34C19.6822 11.338 19.6902 11.3281 19.6837 11.3241C19.3336 11.2068 18.9115 11.0993 18.4275 11.1221ZM15.9176 12.8101C15.8426 12.9776 15.7786 13.1707 15.7376 13.3798C15.6956 13.5923 15.6711 13.831 15.6901 14.0727C15.7081 14.3001 15.7571 14.5032 15.8226 14.6894C15.8861 14.8697 15.9701 15.0451 16.0611 15.2011C16.2197 15.4735 16.4062 15.7326 16.6177 15.9599C16.6407 15.9847 16.6762 16.0263 16.6997 16.0441C16.7092 16.0511 16.7012 16.0531 16.7077 16.0441C16.7122 16.0382 16.7167 16.004 16.7207 15.9812C16.7247 15.958 16.7287 15.9312 16.7312 15.9159C16.8177 15.427 16.9038 14.9559 16.9828 14.4774C17.0123 14.2986 17.0348 14.1148 17.0253 13.9103C17.0168 13.727 16.9748 13.5571 16.9328 13.3907C16.8077 12.8983 16.6747 12.4149 16.5512 11.926C16.5512 11.9245 16.5512 11.923 16.5487 11.9235C16.2872 12.1731 16.0766 12.456 15.9181 12.8106L15.9176 12.8101ZM18.3905 25.0616C18.7075 24.8893 18.9826 24.6574 19.1961 24.387C19.4126 24.1131 19.5901 23.7916 19.6892 23.4028C19.7572 23.1358 19.7872 22.8262 19.7687 22.5181C19.7512 22.2209 19.6842 21.9425 19.5991 21.7043C19.4261 21.2203 19.1631 20.8221 18.8625 20.4704C18.465 22.0892 18.0694 23.7099 17.6754 25.3321C17.9369 25.2746 18.1769 25.178 18.391 25.0616H18.3905Z" fill="white"/>
</svg>
