<svg width="182" height="34" viewBox="0 0 182 34" fill="none" xmlns="http://www.w3.org/2000/svg">
<path d="M102.441 26.6176C102.632 26.4188 103.052 25.8094 103.263 25.4431L112.29 7.31129L116.397 25.154C116.397 25.154 116.891 26.4467 117.129 26.6176H114.965C114.815 26.1116 112.654 18.2088 112.654 18.2088H108.062C108.062 18.2088 104.41 26.386 104.31 26.6176H102.443H102.441ZM108.495 17.2626H112.393L110.945 11.7334L108.495 17.2626ZM120.346 21.4498L120.319 8.36421H117.489C117.851 8.56468 118.051 9.3104 118.098 10.2024C118.151 10.5933 118.308 21.5237 118.352 22.2415C118.783 28.7876 128.021 30.0261 128.577 21.5138C128.62 20.7369 128.99 12.7929 129.021 12.2574C129.124 10.6952 129.31 8.7864 129.832 8.36421H127.767L127.751 21.0949C127.741 28.0007 120.367 27.7888 120.343 21.4481L120.346 21.4498ZM131.665 8.41188C131.957 8.77821 132.206 9.3203 132.22 10.3633L131.793 25.1589C131.726 25.77 131.57 26.3646 131.389 26.6193H133.813L134.672 8.98191C140.703 7.36712 143.406 16.9571 135.412 18.4601C135.99 19.1451 143.836 27.6097 144.189 28.0023C145.265 29.2015 148.186 30.2857 148.875 30.5699C147.452 29.6647 145.293 27.2878 145.026 26.8344C145.582 26.8476 153.757 26.8344 153.757 26.8344L154.513 25.1178C154.513 25.1178 151.863 26.087 147.599 26.087C147.254 26.087 146.774 26.1248 146.774 25.5449V18.2893H153.293V17.1887H146.774L146.949 9.20693C151.322 9.23321 153.293 10.2336 153.293 10.2336V8.36421H143.985C143.985 8.36421 144.537 8.91126 144.579 10.2336C144.579 10.2336 144.766 26.5634 144.766 26.6176C144.513 26.2628 137.975 18.0708 137.975 18.0708C143.369 17.0195 147.224 6.08587 131.666 8.41023L131.665 8.41188ZM69.2699 26.6406C69.2699 26.6406 71.4235 26.6389 71.4555 26.6406C71.3227 26.5782 71.0062 25.8291 71.0338 25.5843L71.2198 8.29033H68.3054C68.6424 8.63526 68.9795 9.30386 68.9795 9.90339C68.9795 9.90339 69.2683 26.6373 69.2683 26.6406H69.2699ZM73.4089 8.29033L74.7085 10.0003L74.2209 24.9617C74.1868 25.5926 73.9448 26.3909 73.7843 26.6389C73.7588 26.6373 75.4964 26.6389 75.4964 26.6389L75.49 11.1108L88.4759 28.1256L89.2546 10.5408C89.2801 10.1531 89.0764 9.25619 90.0538 9.23156H93.0293L93.1528 25.1458C93.1351 25.8078 93.079 26.1872 92.9186 26.6389C92.9264 26.6373 95.3064 26.6373 95.3156 26.6389C95.2098 26.2611 95.1204 25.8274 95.1268 25.2197L95.6627 9.24139C97.5614 9.23816 99.6057 9.27593 101.294 9.91819L96.8616 31.0232C96.6337 31.8626 96.4087 32.4819 96.1603 32.8153H111.866L113.176 30.491C110.377 31.4667 103.359 32.0959 99.9521 32.0449C98.8483 32.0286 98.8064 31.4437 98.9747 30.7686L105.837 1.35333H102.602C102.928 1.7755 102.928 2.2108 102.803 2.92701L101.653 8.29198H87.8747V24.331L76.5206 8.29198H73.4053L73.4089 8.29033ZM182 8.46609H169.055V24.492L157.706 8.45949H154.589C154.753 8.66319 155.745 9.9757 155.885 10.1761C155.885 10.641 155.387 25.1375 155.387 25.1375C155.36 25.8111 155.344 26.3252 155.121 26.818H156.676L156.669 11.2849C156.669 11.2849 169.426 27.9695 169.652 28.303C169.673 27.6574 170.3 10.7001 170.3 10.7001C170.297 10.3141 170.297 9.24635 171.302 9.24305H174.546L174.648 25.5712C174.611 26.2102 174.539 26.3745 174.407 26.8114C174.407 26.8147 176.707 26.818 176.707 26.818C176.593 26.3925 176.537 26.1691 176.563 25.5811L177.114 9.2447C179.054 9.248 180.258 9.248 181.998 9.77695V8.46775L182 8.46609ZM59.0762 18.3205L54.403 28.4853C51.2415 35.1135 43.7439 34.6962 38.6983 30.0048L39.4991 27.3929C46.204 38.5023 57.4313 29.7715 51.479 22.0428L42.7473 11.4705C36.7998 4.44319 33.2099 11.8861 36.5206 14.5916L41.4201 18.3862C45.0261 21.003 43.8209 26.5634 39.1589 27.0595C37.0052 27.2894 34.5419 26.3285 33.0638 25.2821L32.6626 26.6882H23.1157C23.2826 26.3745 23.4655 25.7864 23.4639 25.338L23.4398 9.12149C23.4494 8.82416 23.2633 8.80449 23.1541 9.05249L14.7337 27.4981L11.0138 10.7806C10.8918 10.3716 10.6431 10.7576 10.6431 10.7576C10.014 11.6364 7.27138 15.5822 6.78032 16.2605C6.41442 16.7583 6.26517 17.0934 5.98914 17.9147C5.84952 18.3237 2.83249 30.7292 2.69608 31.2121C2.57251 31.6474 2.74262 32.5476 2.97371 32.7727H0C0.0994985 32.6889 0.588967 32.1074 0.701301 31.6458L3.06679 19.1254C3.59637 16.6597 2.92396 14.1645 2.92396 14.1645C1.45556 5.40251 1.13781 1.62108 0.37392 1.0248H2.84693C2.92396 1.48639 5.7741 15.2815 5.94903 15.9517C5.7741 16.231 15.4334 1.14635 15.4334 1.14635H17.9273C17.9273 1.14635 16.6804 2.357 16.4557 2.66582C16.2647 2.92372 13.2525 7.12732 12.8754 7.64965L15.7544 23.508L21.9827 8.24272H32.3369V9.97405C31.2039 9.39419 27.2641 8.68623 25.7058 8.89316L25.5582 16.5907C25.5662 17.0129 25.5614 17.0474 25.9305 17.0474L32.3513 17.0392V18.0987H25.4811L25.2677 25.5367C25.2677 26.0558 25.632 26.1067 25.9433 26.1199C28.6346 26.225 31.1669 25.8652 33.0269 25.0307L33.4715 23.3635C35.5401 25.9507 37.2123 26.8624 39.3932 26.22C41.4795 25.5893 43.4903 22.6653 39.642 19.9155L35.8899 17.2018C30.7031 13.1904 35.0891 4.51547 42.4392 8.85374C42.4151 1.30077 51.8129 -2.46259 58.4487 3.29989L57.7955 5.7869C51.9364 -3.95578 41.2066 4.05552 46.1687 11.004L53.1946 20.405C54.7721 22.4304 55.0433 23.8973 55.0433 23.8973L63.3129 7.69402L67.426 25.3001C67.5736 25.8636 67.8737 26.4221 68.0904 26.634C68.0872 26.6324 65.7265 26.6324 65.7249 26.634C65.7265 26.6324 63.5408 18.3205 63.5408 18.3205L59.073 18.3139L59.0762 18.3205ZM59.5352 17.1771H63.2455L61.9183 11.9519L59.5368 17.1771H59.5352Z" fill="black"/>
</svg>
