<svg width="24" height="16" viewBox="0 0 24 16" fill="none" xmlns="http://www.w3.org/2000/svg">
<path fill-rule="evenodd" clip-rule="evenodd" d="M9.52208 10.9504L9.52128 4.55888L16.0058 7.76576L9.52208 10.9504ZM23.76 3.45152C23.76 3.45152 23.5253 1.884 22.8061 1.19376C21.8933 0.28736 20.8702 0.28304 20.4014 0.23056C17.0432 0 12.0053 0 12.0053 0H11.9947C11.9947 0 6.95696 0 3.59856 0.2304C3.12896 0.28288 2.10672 0.2872 1.19328 1.1936C0.47392 1.88384 0.24 3.4512 0.24 3.4512C0.24 3.4512 0 5.2928 0 7.13296V8.8592C0 10.7003 0.24 12.5408 0.24 12.5408C0.24 12.5408 0.47392 14.1083 1.19328 14.7986C2.10688 15.705 3.30608 15.6765 3.84 15.771C5.76 15.9459 12 16 12 16C12 16 17.043 15.993 20.4016 15.7626C20.8704 15.7093 21.8933 15.705 22.8061 14.7986C23.5253 14.1083 23.76 12.541 23.76 12.541C23.76 12.541 24 10.7003 24 8.85904V7.13312C24 5.29264 23.76 3.45152 23.76 3.45152Z" fill="white"/>
</svg>
