<svg width="24" height="24" viewBox="0 0 24 24" fill="none" xmlns="http://www.w3.org/2000/svg">
<path fill-rule="evenodd" clip-rule="evenodd" d="M16.3529 5C15.7749 5 15.3062 5.44772 15.3062 6C15.3062 6.55228 15.7749 7 16.3529 7C16.931 7 17.3996 6.55228 17.3996 6C17.3996 5.44772 16.931 5 16.3529 5ZM13.2129 6C13.2129 4.34315 14.6187 3 16.3529 3C18.0871 3 19.4931 4.34315 19.4931 6C19.4931 7.65685 18.0871 9 16.3529 9C14.6187 9 13.2129 7.65685 13.2129 6Z" fill="#1D1D1D"/>
<path fill-rule="evenodd" clip-rule="evenodd" d="M7.97797 11C7.3999 11 6.93128 11.4477 6.93128 12C6.93128 12.5523 7.3999 13 7.97797 13C8.55604 13 9.02466 12.5523 9.02466 12C9.02466 11.4477 8.55604 11 7.97797 11ZM4.83789 12C4.83789 10.3431 6.24375 9 7.97797 9C9.71219 9 11.118 10.3431 11.118 12C11.118 13.6569 9.71219 15 7.97797 15C6.24375 15 4.83789 13.6569 4.83789 12Z" fill="#1D1D1D"/>
<path fill-rule="evenodd" clip-rule="evenodd" d="M16.3529 17C15.7749 17 15.3062 17.4477 15.3062 18C15.3062 18.5523 15.7749 19 16.3529 19C16.931 19 17.3996 18.5523 17.3996 18C17.3996 17.4477 16.931 17 16.3529 17ZM13.2129 18C13.2129 16.3431 14.6187 15 16.3529 15C18.0871 15 19.4931 16.3431 19.4931 18C19.4931 19.6569 18.0871 21 16.3529 21C14.6187 21 13.2129 19.6569 13.2129 18Z" fill="#1D1D1D"/>
<path fill-rule="evenodd" clip-rule="evenodd" d="M2.74414 6C2.74414 5.44772 3.21276 5 3.79084 5H14.2578C14.8358 5 15.3044 5.44772 15.3044 6C15.3044 6.55228 14.8358 7 14.2578 7H3.79084C3.21276 7 2.74414 6.55228 2.74414 6Z" fill="#1D1D1D"/>
<path fill-rule="evenodd" clip-rule="evenodd" d="M9.02539 12C9.02539 11.4477 9.49401 11 10.0721 11H20.539C21.117 11 21.5857 11.4477 21.5857 12C21.5857 12.5523 21.117 13 20.539 13H10.0721C9.49401 13 9.02539 12.5523 9.02539 12Z" fill="#1D1D1D"/>
<path fill-rule="evenodd" clip-rule="evenodd" d="M2.74414 12C2.74414 11.4477 3.21276 11 3.79084 11H5.88421C6.46228 11 6.93091 11.4477 6.93091 12C6.93091 12.5523 6.46228 13 5.88421 13H3.79084C3.21276 13 2.74414 12.5523 2.74414 12Z" fill="#1D1D1D"/>
<path fill-rule="evenodd" clip-rule="evenodd" d="M17.3984 6C17.3984 5.44772 17.8671 5 18.4452 5H20.5385C21.1165 5 21.5852 5.44772 21.5852 6C21.5852 6.55228 21.1165 7 20.5385 7H18.4452C17.8671 7 17.3984 6.55228 17.3984 6Z" fill="#1D1D1D"/>
<path fill-rule="evenodd" clip-rule="evenodd" d="M17.3984 18C17.3984 17.4477 17.8671 17 18.4452 17H20.5385C21.1165 17 21.5852 17.4477 21.5852 18C21.5852 18.5523 21.1165 19 20.5385 19H18.4452C17.8671 19 17.3984 18.5523 17.3984 18Z" fill="#1D1D1D"/>
<path fill-rule="evenodd" clip-rule="evenodd" d="M2.74414 18C2.74414 17.4477 3.21276 17 3.79084 17H14.2578C14.8358 17 15.3044 17.4477 15.3044 18C15.3044 18.5523 14.8358 19 14.2578 19H3.79084C3.21276 19 2.74414 18.5523 2.74414 18Z" fill="#1D1D1D"/>
</svg>
