<svg width="17" height="36" viewBox="0 0 17 36" fill="none" xmlns="http://www.w3.org/2000/svg">
<path fill-rule="evenodd" clip-rule="evenodd" d="M6.73881 29.7739C6.57877 31.8628 6.14917 34.2797 5.39105 35.9889C8.82784 35.9889 12.2646 35.9889 15.7014 35.9889C15.7941 35.2551 16.0805 34.72 16.2405 34.0553C13.7051 34.7804 10.1082 35.2465 8.22135 34.953C8.3477 33.2871 8.62568 31.1723 8.96262 29.4977C11.3717 28.3583 14.1262 26.1744 13.7472 22.4541C13.5282 20.3133 12.1214 19.2516 10.8495 18.0345C11.0348 16.7743 11.2791 15.5744 11.456 14.3056C10.8916 14.1502 10.0408 14.2797 9.36695 14.2365C9.0974 14.9529 9.07213 15.9111 8.89523 16.7225C8.53302 16.5153 8.15396 16.334 7.88441 16.0319C8.11185 14.7889 8.33928 13.5546 8.42352 12.1648C9.32483 10.8614 10.1756 9.49759 11.1864 8.29776C12.5089 8.79841 13.5871 9.56665 14.4211 10.5766C14.758 9.87739 14.9517 8.68619 15.0276 7.95248C14.1684 7.54678 13.107 7.33962 12.0625 7.12382C13.4776 4.66373 15.2466 2.56619 16.7796 0.218312C16.8049 0.218312 16.8218 0.218312 16.847 0.218312C16.847 0.149257 16.847 0.0802016 16.847 0.0111465C16.1479 0.0111465 15.4572 0.0111465 14.758 0.0111465C13.3681 2.38492 11.9193 4.69826 10.4452 6.98571C9.0637 6.92529 8.01076 7.20151 6.94098 7.4691C6.21655 4.98311 5.53425 2.47123 4.78456 0.0111465C3.86639 0.0111465 2.93981 0.0111465 2.02164 0.0111465C2.88084 0.356422 2.98192 1.33183 3.30202 2.35902C3.90851 4.30119 4.68347 6.50233 5.25627 8.2287C3.79901 9.49759 1.49939 11.6728 2.62814 14.5127C3.21778 15.9888 4.58239 16.6534 5.72799 17.6893C5.5511 19.1826 5.46686 20.7795 4.78456 21.7635C5.63533 21.7635 6.49453 21.7635 7.34531 21.7635C7.32846 20.9607 7.37058 19.7523 7.48008 18.8632C7.89283 18.9754 8.17081 19.2171 8.42352 19.4847C8.00234 22.4627 7.53062 25.3803 7.00837 28.2547C3.73162 28.5309 1.99637 27.2189 0.471717 25.6996C0.252705 26.3039 0.31167 27.193 0 27.7022C0 27.9526 0 28.2115 0 28.4618C1.7184 29.42 3.95905 30.1278 6.73881 29.7739ZM10.3778 20.9348C12.829 22.5231 12.0288 26.9599 9.23217 27.6332C9.62808 25.4148 9.96502 23.136 10.3778 20.9348ZM6.19971 14.7199C4.52343 13.9948 3.93378 10.8787 5.59321 9.67886C6.42714 10.9823 6.58719 12.8122 6.19971 14.7199ZM7.27792 8.64303C7.92653 8.35818 8.88681 8.04743 9.70389 8.15965C9.19006 9.15231 8.54987 10.0155 8.01919 10.9909C7.65698 10.3263 7.5222 9.4199 7.27792 8.64303Z" fill="white"/>
</svg>
