<svg width="24" height="24" viewBox="0 0 24 24" fill="none" xmlns="http://www.w3.org/2000/svg">
<g clip-path="url(#clip0_1635_5804)">
<path d="M12 0C8.74096 0 8.33232 0.01376 7.05248 0.07216C5.7752 0.1304 4.90288 0.33328 4.13952 0.63008C3.3504 0.93664 2.68128 1.34688 2.01408 2.01408C1.34688 2.68128 0.93664 3.3504 0.63008 4.13952C0.33328 4.90272 0.1304 5.7752 0.072 7.05248C0.01376 8.33248 0 8.7408 0 12C0 15.2592 0.01376 15.6677 0.07216 16.9475C0.1304 18.2248 0.33328 19.0971 0.63008 19.8605C0.93664 20.6496 1.34688 21.3187 2.01408 21.9859C2.68128 22.6531 3.3504 23.0634 4.13952 23.3699C4.90272 23.6667 5.7752 23.8696 7.05248 23.9278C8.33248 23.9862 8.74096 24 12 24C15.259 24 15.6677 23.9862 16.9475 23.9278C18.2248 23.8696 19.0971 23.6667 19.8605 23.3701C20.6496 23.0634 21.3187 22.6531 21.9859 21.9861C22.6531 21.3189 23.0634 20.6496 23.3699 19.8605C23.6667 19.0973 23.8696 18.2248 23.9278 16.9475C23.9862 15.6675 24 15.259 24 12C24 8.74096 23.9862 8.33232 23.9278 7.05248C23.8696 5.7752 23.6667 4.90288 23.3701 4.13952C23.0634 3.3504 22.6531 2.68128 21.9861 2.01408C21.3189 1.34688 20.6496 0.93664 19.8605 0.63008C19.0973 0.33328 18.2248 0.1304 16.9475 0.07216C15.6675 0.01376 15.2592 0 12 0ZM12 2.16208C15.2042 2.16208 15.5837 2.1744 16.849 2.23216C18.019 2.28544 18.6544 2.48096 19.0773 2.64528C19.6373 2.86288 20.0373 3.12304 20.457 3.54288C20.877 3.96288 21.137 4.36256 21.3546 4.92272C21.519 5.3456 21.7146 5.98096 21.7678 7.15104C21.8256 8.41632 21.8379 8.79584 21.8379 12C21.8379 15.2042 21.8256 15.5837 21.7678 16.849C21.7146 18.019 21.519 18.6544 21.3547 19.0773C21.1371 19.6373 20.877 20.0373 20.4571 20.457C20.0371 20.877 19.6374 21.137 19.0773 21.3546C18.6544 21.519 18.019 21.7146 16.849 21.7678C15.5838 21.8256 15.2043 21.8379 12 21.8379C8.79568 21.8379 8.41616 21.8256 7.15104 21.7678C5.98096 21.7146 5.3456 21.519 4.92272 21.3547C4.36272 21.1371 3.96272 20.877 3.54304 20.4571C3.12304 20.0371 2.86304 19.6374 2.64544 19.0773C2.48096 18.6544 2.28544 18.019 2.23216 16.849C2.1744 15.5837 2.16208 15.2042 2.16208 12C2.16208 8.79584 2.1744 8.41632 2.23216 7.15104C2.28544 5.98096 2.48096 5.3456 2.64528 4.92272C2.86288 4.36272 3.12304 3.96272 3.54288 3.54304C3.96288 3.12304 4.36256 2.86304 4.92272 2.64544C5.3456 2.48096 5.98096 2.28544 7.15104 2.23216C8.41632 2.1744 8.79584 2.16208 12 2.16208ZM12 5.83792C8.5968 5.83792 5.83792 8.59664 5.83792 12C5.83792 15.4032 8.59664 18.1621 12 18.1621C15.4032 18.1621 18.1621 15.4034 18.1621 12C18.1621 8.5968 15.4034 5.83792 12 5.83792ZM12 16C9.79088 16 8 14.2091 8 12C8 9.79088 9.79088 8 12 8C14.2091 8 16 9.79088 16 12C16 14.2091 14.2091 16 12 16ZM19.8456 5.5944C19.8456 5.97631 19.6939 6.34258 19.4238 6.61263C19.1538 6.88269 18.7875 7.0344 18.4056 7.0344C18.0237 7.0344 17.6574 6.88269 17.3874 6.61263C17.1173 6.34258 16.9656 5.97631 16.9656 5.5944C16.9656 5.21249 17.1173 4.84622 17.3874 4.57617C17.6574 4.30611 18.0237 4.1544 18.4056 4.1544C18.7875 4.1544 19.1538 4.30611 19.4238 4.57617C19.6939 4.84622 19.8456 5.21249 19.8456 5.5944Z" fill="white"/>
</g>
<defs>
<clipPath id="clip0_1635_5804">
<rect width="24" height="24" fill="white"/>
</clipPath>
</defs>
</svg>
