<svg width="18" height="22" viewBox="0 0 18 22" fill="none" xmlns="http://www.w3.org/2000/svg">
<g clip-path="url(#clip0_3251_8660)">
<path d="M16.75 8.875C16.75 15 8.875 20.25 8.875 20.25C8.875 20.25 1 15 1 8.875C1 6.78642 1.82968 4.78339 3.30654 3.30653C4.78339 1.82968 6.78642 1 8.875 1C10.9635 1 12.9666 1.82968 14.4435 3.30653C15.9203 4.78339 16.75 6.78642 16.75 8.875Z" stroke="white" stroke-width="2" stroke-linecap="round" stroke-linejoin="round"/>
<path d="M9 12C10.6569 12 12 10.6569 12 9C12 7.34315 10.6569 6 9 6C7.3431 6 6 7.34315 6 9C6 10.6569 7.3431 12 9 12Z" stroke="white" stroke-width="2" stroke-linecap="round" stroke-linejoin="round"/>
</g>
<defs>
<clipPath id="clip0_3251_8660">
<rect width="18" height="22" fill="white"/>
</clipPath>
</defs>
</svg>
