<svg width="24" height="21" viewBox="0 0 24 21" fill="none" xmlns="http://www.w3.org/2000/svg">
<path d="M24 2.48602C23.108 2.91319 22.1535 3.19482 21.1728 3.32024C22.1898 2.66508 22.9702 1.62598 23.3379 0.38826C22.3856 0.995015 21.3333 1.43634 20.2091 1.67295C19.3131 0.643145 18.0328 0 16.6155 0C13.8984 0 11.6938 2.3738 11.6938 5.3013C11.6938 5.71681 11.736 6.1203 11.8205 6.50856C7.72816 6.28718 4.1008 4.17884 1.67072 0.967763C1.24672 1.75342 1.00448 2.66508 1.00448 3.63573C1.00448 5.47411 1.8736 7.09704 3.19488 8.04813C2.38912 8.02232 1.62848 7.78122 0.96352 7.38671V7.45195C0.96352 10.0215 2.66112 12.1646 4.91488 12.65C4.50208 12.7744 4.06688 12.8366 3.6176 12.8366C3.30064 12.8366 2.99072 12.8047 2.69056 12.7425C3.31744 14.848 5.13472 16.3814 7.29008 16.4223C5.60528 17.845 3.48096 18.6929 1.17488 18.6929C0.7776 18.6929 0.38448 18.6688 0 18.6201C2.1792 20.1218 4.76848 21 7.54784 21C16.6058 21 21.5574 12.923 21.5574 5.91687C21.5574 5.68651 21.5531 5.45583 21.5446 5.22996C22.5067 4.48214 23.3421 3.54916 24 2.48602Z" fill="white"/>
</svg>
