<svg width="389" height="70" viewBox="0 0 389 70" fill="none" xmlns="http://www.w3.org/2000/svg">
<path d="M218.954 55.401C219.362 54.9793 220.261 53.6867 220.711 52.9096L240.004 14.4482L248.782 52.2963C248.782 52.2963 249.838 55.0385 250.346 55.401H245.722C245.401 54.3277 240.783 37.5641 240.783 37.5641H230.967C230.967 37.5641 223.163 54.9097 222.947 55.401H218.957H218.954ZM231.892 35.557H240.224L237.129 23.8284L231.892 35.557ZM257.224 44.4389L257.164 16.6817H251.117C251.889 17.1069 252.319 18.6887 252.417 20.5808C252.531 21.4101 252.868 44.5956 252.96 46.1184C253.883 60.0039 273.627 62.6312 274.816 44.5748C274.909 42.9267 275.697 26.0758 275.766 24.9399C275.986 21.6262 276.383 17.5772 277.498 16.6817H273.083L273.05 43.6862C273.029 58.3348 257.268 57.8854 257.216 44.4354L257.224 44.4389ZM281.415 16.7828C282.04 17.5598 282.571 18.7097 282.602 20.9223L281.69 52.3068C281.546 53.603 281.214 54.8643 280.825 55.4045H286.008L287.843 17.9919C300.734 14.5666 306.51 34.9089 289.424 38.0971C290.659 39.5503 307.429 57.5055 308.183 58.3383C310.485 60.8819 316.728 63.1817 318.199 63.7846C315.158 61.8646 310.544 56.8226 309.974 55.8609C311.161 55.8888 328.634 55.8609 328.634 55.8609L330.25 52.2197C330.25 52.2197 324.586 54.2755 315.473 54.2755C314.736 54.2755 313.71 54.3556 313.71 53.1256V37.7348H327.642V35.4003H313.71L314.083 18.4692C323.43 18.525 327.642 20.647 327.642 20.647V16.6817H307.748C307.748 16.6817 308.928 17.8421 309.018 20.647C309.018 20.647 309.418 55.286 309.418 55.401C308.877 54.6483 294.903 37.2713 294.903 37.2713C306.431 35.0413 314.671 11.8488 281.418 16.7793L281.415 16.7828ZM148.055 55.4497C148.055 55.4497 152.658 55.4462 152.726 55.4497C152.443 55.3174 151.766 53.7284 151.825 53.2092L152.223 16.5249H145.993C146.714 17.2566 147.434 18.6749 147.434 19.9466C147.434 19.9466 148.052 55.4427 148.052 55.4497H148.055ZM156.901 16.5249L159.679 20.1522L158.637 51.8885C158.564 53.2267 158.047 54.9202 157.704 55.4462C157.649 55.4427 161.363 55.4462 161.363 55.4462L161.35 22.5077L189.105 58.5997L190.769 21.2986C190.824 20.4763 190.389 18.5737 192.478 18.5215H198.837L199.101 52.2789C199.063 53.6831 198.944 54.4881 198.601 55.4462C198.617 55.4427 203.704 55.4427 203.724 55.4462C203.498 54.6448 203.307 53.7249 203.32 52.4356L204.466 18.5424C208.524 18.5355 212.893 18.6156 216.501 19.978L207.028 64.7462C206.541 66.5268 206.06 67.8404 205.529 68.5477H239.099L241.898 63.6173C235.916 65.687 220.916 67.0216 213.634 66.9135C211.275 66.8788 211.185 65.6383 211.545 64.2061L226.212 1.8101H219.297C219.994 2.7056 219.994 3.62898 219.727 5.14821L217.27 16.5284H187.82V50.5506L163.552 16.5284H156.894L156.901 16.5249ZM389 16.8978H361.332V50.892L337.075 16.8838H330.414C330.764 17.3159 332.883 20.1 333.182 20.525C333.182 21.5112 332.119 52.2614 332.119 52.2614C332.06 53.6902 332.026 54.7807 331.55 55.8261H334.872L334.859 22.8771C334.859 22.8771 362.124 58.2687 362.608 58.976C362.652 57.6066 363.993 21.6366 363.993 21.6366C363.987 20.8178 363.987 18.5529 366.134 18.5459H373.067L373.286 53.1813C373.207 54.5368 373.054 54.8853 372.771 55.812C372.771 55.8191 377.687 55.8261 377.687 55.8261C377.444 54.9235 377.323 54.4497 377.379 53.2023L378.558 18.5494C382.702 18.5564 385.277 18.5564 388.995 19.6784V16.9013L389 16.8978ZM126.267 37.801L116.279 59.3627C109.522 73.4225 93.4965 72.5375 82.7124 62.5859L84.424 57.0456C98.7548 80.6109 122.751 62.0911 110.029 45.6968L91.3665 23.2708C78.6546 8.36435 70.9816 24.1523 78.0577 29.8913L88.5297 37.9404C96.2371 43.4911 93.6611 55.286 83.6968 56.3383C79.0936 56.8261 73.8285 54.7877 70.6694 52.5681L69.8119 55.5507H49.4066C49.7633 54.8853 50.1542 53.6378 50.1509 52.6866L50.0994 18.288C50.1199 17.6573 49.7221 17.6156 49.4888 18.1416L31.4913 57.2687L23.5404 21.8073C23.2798 20.9398 22.7482 21.7586 22.7482 21.7586C21.4036 23.6228 15.5416 31.9925 14.492 33.4314C13.7099 34.4872 13.3909 35.1982 12.801 36.9404C12.5026 37.8079 6.05405 64.1225 5.76249 65.1469C5.49838 66.0703 5.86197 67.9798 6.3559 68.4572H0C0.212664 68.2795 1.25884 67.046 1.49893 66.0668L6.55484 39.5084C7.68675 34.2783 6.24956 28.9854 6.24956 28.9854C3.11106 10.3993 2.43191 2.37806 0.799203 1.1132H6.08493C6.24956 2.09234 12.3413 31.3548 12.7152 32.7764C12.3413 33.3687 32.9869 1.37106 32.9869 1.37106H38.3171C38.3171 1.37106 35.652 3.9391 35.1718 4.59417C34.7636 5.14123 28.3254 14.0579 27.5193 15.1659L33.6729 48.8049L46.985 16.424H69.1157V20.0965C66.6941 18.8665 58.2732 17.3647 54.9427 17.8037L54.6271 34.1319C54.6443 35.0274 54.6339 35.1005 55.4229 35.1005L69.1465 35.0832V37.3306H54.4624L54.0062 53.1082C54.0062 54.2092 54.7849 54.3173 55.4503 54.3452C61.2024 54.5682 66.615 53.805 70.5905 52.0349L71.5407 48.4983C75.962 53.9862 79.5362 55.9202 84.1976 54.5577C88.6567 53.2197 92.9546 47.0174 84.7292 41.1843L76.7098 35.4281C65.6238 26.9191 74.9982 8.51766 90.7079 17.7201C90.6564 1.6986 110.743 -6.28428 124.926 5.93917L123.53 11.2146C111.007 -9.45165 88.0736 7.54202 98.6792 22.2813L113.696 42.2227C117.068 46.5191 117.648 49.6306 117.648 49.6306L135.323 15.26L144.114 52.6064C144.429 53.8016 145.071 54.9863 145.534 55.4359C145.527 55.4324 140.481 55.4324 140.478 55.4359C140.481 55.4324 135.81 37.801 135.81 37.801L126.26 37.787L126.267 37.801ZM127.248 35.3758H135.179L132.342 24.2918L127.252 35.3758H127.248Z" fill="#fff"/>
</svg>
