<?xml version="1.0" encoding="UTF-8"?>
<svg id="_레이어_1" data-name="레이어_1" xmlns="http://www.w3.org/2000/svg" version="1.1" viewBox="0 0 600 600">
  <!-- Generator: Adobe Illustrator 29.0.1, SVG Export Plug-In . SVG Version: 2.1.0 Build 192)  -->
  <defs>
    <style>
      .st0 {
        fill-rule: evenodd;
      }
    </style>
  </defs>
  <path class="st0" d="M228.3,81.6h23.3c8.8,29.5,17.6,58.9,26.4,88.3,0,0,0,0,0,0,6.3-1.8,13.7-3.1,21.7-3.4,10.5-.3,20.7.8,29.3,2.8.2,0,.4,0,.6.1,18.8-29.3,37.7-58.5,56.4-87.9h23.9c-6.9,2.9-11.1,9-15.4,14.8-12.7,17.4-25,35.2-37.6,52.7-5.2,7.3-10.4,14.7-15.6,22-.3.5-.8.9-1,1.5,11.3,3.9,21,9.5,29.5,16.4.4.3,1.5,1.1,1.6,1.4,0,.2-.3,1.2-.4,1.5-1.9,7.7-3.8,15.4-5.7,23-.1.2-.1-.1-.2-.2-.4-.7-.9-1.5-1.3-2.2-1.4-2.5-3.2-4.8-4.9-7.2-6.8-9.1-15.6-16.7-26.2-22.2-.5.4-.8,1-1.1,1.5-8.1,11.5-16.3,23-24.4,34.6-2.9,4.1-5.3,8.3-7.4,13.1-2.1,4.8-3.8,9.9-5.2,15.3-.7,2.7-1.3,5.5-2,8.3-.6,2.8-1.3,5.5-1.9,8.3-2.4,11.3-4.9,22.6-7.4,33.8,2.7,3.4,5.6,6.7,8.3,10.1.4.5.7,1,1.2,1.3,3.4-15.9,6.9-31.9,10.3-48,.5-2.6,1.1-5.6.9-8.7-.2-2.9-.8-5.1-2.3-6.8,0,0-.3-.3-.1-.3h33.5c-5.3,22.3-10.8,44.4-16.2,66.8-1.6,6.8-3.4,13.9-5,20.9-.1.5-.4,1.1-.4,1.3,0,.3.5.7.8,1.1,4.2,4.9,8.4,9.9,12.3,15.1,4.2,5.5,8.5,11.2,11.8,17.4,3.4,6.4,6.1,13.5,6.8,22.4.7,9.7-1,18.3-3.2,25.7-4.4,14.9-12,27-22,36.4-10.2,9.6-23.1,16.2-39.6,19.4-4,16.4-8.1,33-12,49.7-.3,1.1-.6,2.3-.8,3.6-.2,1.2-.4,2.8,0,3.9.4,1.1,1.6,1.5,3.2,1.5,1.5,0,3.2,0,4.7,0,15.8,0,30.9-.4,45.3-1.7,5.8-.5,11.4-1.2,16.9-1.9,22.3-2.9,43.8-6.5,64.1-11,.1.1,0,.3-.1.3-3.4,5.8-6.9,11.7-10.4,17.6-1.2,2-2.4,4.1-3.6,6h-148.8c3.7-3.3,5.7-8.6,6.9-14.2,3.9-17.1,7.6-34.8,11.4-51.9-7.8-.2-14.7-1.7-21.1-3.5-11.1-3.2-20.9-7.9-29.7-13.4-6.3-3.9-12.2-8.2-17.2-13.6v-.2c2.4-9.5,4.7-19.2,7.2-28.7,5.3,13,13.6,23.4,23.8,31.7,5.1,4.1,10.7,7.6,17,10.8,3.1,1.5,6.4,2.8,10,3.9,3.8,1.1,7.8,2,12.3,2.2,0,0,0,0,.1,0,4.3-20.4,8.9-40.8,13.3-61.3,4.2-19.7,8.7-39.6,12.8-59.4.1-.7.5-1.5.4-1.9,0-.4-.8-1-1.2-1.4-2.1-2.4-4-4.5-6-6.8-.7-.8-1.4-1.6-2.1-2.3,0,0-.2-.3-.3-.2-2.1,9.9-4.3,20-6.4,29.9-1.2,5.4-1.9,13.8,1.1,17.8.1.1.5.4.3.5h-31c2.2-1.4,3.8-3.4,4.9-5.8,1.2-2.5,1.9-5.3,2.4-8.4,3.5-18.2,6.6-36.8,9.9-55.1-4-4.5-8-8.9-12.1-13.4-4-4.4-8.3-8.6-12-13.5-3.6-4.8-6.7-10.2-9.1-16.4-2.4-6.2-3.9-13.2-3.9-21.6s1.4-15.5,3.4-22.1c2-6.5,4.9-12.3,8.1-17.4,6.5-10.6,15.1-18.9,25.4-25.5-3.3-12.4-6.4-25.2-9.8-37.7-1.1-4.2-2.2-8.4-3.2-12.6-2.1-8.3-4.3-16.8-6.5-25.2-2.1-8.4-4-17.3-9.9-21.9ZM298.2,175c-6.6.3-12.5,1.8-17.6,3.6,4.5,15.3,9.1,30.5,13.7,45.7.4-.4.6-.9.9-1.3,8.8-13.7,17.7-27.5,26.4-41.2.5-.8,1.2-1.7,1.6-2.4,0,0,.2-.2,0-.3-7-2.4-15.4-4.5-25.1-4.1ZM248,209.1c-1.5,3.4-2.8,7.3-3.6,11.5-.8,4.3-1.3,9.1-1,14,.4,4.6,1.3,8.7,2.6,12.5,1.3,3.6,3,7.2,4.8,10.3,3.2,5.5,6.9,10.7,11.1,15.3.5.5,1.2,1.3,1.6,1.7.2.1,0,.2.2,0,0-.1.2-.8.3-1.3,0-.5.2-1,.2-1.3,1.7-9.9,3.4-19.4,5-29,.6-3.6,1-7.3.8-11.4-.2-3.7-1-7.1-1.9-10.5-2.5-9.9-5.2-19.7-7.6-29.6,0,0,0,0,0,0-5.2,5-9.4,10.8-12.6,17.9ZM297.5,456.5c6.3-3.5,11.8-8.2,16.1-13.6,4.3-5.5,7.9-12,9.9-19.9,1.4-5.4,2-11.6,1.6-17.9-.4-6-1.7-11.6-3.4-16.4-3.5-9.8-8.7-17.8-14.7-24.9-8,32.7-15.9,65.4-23.7,98.1,5.2-1.2,10-3.1,14.3-5.5Z"/>
</svg>