<svg width="24" height="24" viewBox="0 0 24 24" fill="none" xmlns="http://www.w3.org/2000/svg">
<path d="M24 3.48602C23.108 3.91319 22.1535 4.19482 21.1728 4.32024C22.1898 3.66508 22.9702 2.62598 23.3379 1.38826C22.3856 1.99502 21.3333 2.43634 20.2091 2.67295C19.3131 1.64315 18.0328 1 16.6155 1C13.8984 1 11.6938 3.3738 11.6938 6.3013C11.6938 6.71681 11.736 7.1203 11.8205 7.50856C7.72816 7.28718 4.1008 5.17884 1.67072 1.96776C1.24672 2.75342 1.00448 3.66508 1.00448 4.63573C1.00448 6.47411 1.8736 8.09704 3.19488 9.04813C2.38912 9.02232 1.62848 8.78122 0.96352 8.38671V8.45195C0.96352 11.0215 2.66112 13.1646 4.91488 13.65C4.50208 13.7744 4.06688 13.8366 3.6176 13.8366C3.30064 13.8366 2.99072 13.8047 2.69056 13.7425C3.31744 15.848 5.13472 17.3814 7.29008 17.4223C5.60528 18.845 3.48096 19.6929 1.17488 19.6929C0.7776 19.6929 0.38448 19.6688 0 19.6201C2.1792 21.1218 4.76848 22 7.54784 22C16.6058 22 21.5574 13.923 21.5574 6.91687C21.5574 6.68651 21.5531 6.45583 21.5446 6.22996C22.5067 5.48214 23.3421 4.54916 24 3.48602Z" fill="white"/>
</svg>
