<svg width="24" height="24" viewBox="0 0 24 24" fill="none" xmlns="http://www.w3.org/2000/svg">
<path fill-rule="evenodd" clip-rule="evenodd" d="M9.52208 14.9504L9.52128 8.55888L16.0058 11.7658L9.52208 14.9504ZM23.76 7.45152C23.76 7.45152 23.5253 5.884 22.8061 5.19376C21.8933 4.28736 20.8702 4.28304 20.4014 4.23056C17.0432 4 12.0053 4 12.0053 4H11.9947C11.9947 4 6.95696 4 3.59856 4.2304C3.12896 4.28288 2.10672 4.2872 1.19328 5.1936C0.47392 5.88384 0.24 7.4512 0.24 7.4512C0.24 7.4512 0 9.2928 0 11.133V12.8592C0 14.7003 0.24 16.5408 0.24 16.5408C0.24 16.5408 0.47392 18.1083 1.19328 18.7986C2.10688 19.705 3.30608 19.6765 3.84 19.771C5.76 19.9459 12 20 12 20C12 20 17.043 19.993 20.4016 19.7626C20.8704 19.7093 21.8933 19.705 22.8061 18.7986C23.5253 18.1083 23.76 16.541 23.76 16.541C23.76 16.541 24 14.7003 24 12.859V11.1331C24 9.29264 23.76 7.45152 23.76 7.45152Z" fill="white"/>
</svg>
