<svg width="46" height="94" viewBox="0 0 46 94" fill="none" xmlns="http://www.w3.org/2000/svg">
<path fill-rule="evenodd" clip-rule="evenodd" d="M8.44082 0.00204828H13.1861C14.9766 6.03959 16.7813 12.0648 18.5799 18.0962C18.5799 18.1065 18.584 18.1065 18.5901 18.1065C19.8647 17.7314 21.3839 17.463 23.0214 17.4117C25.1585 17.3441 27.2508 17.5859 28.9862 17.9876C29.029 17.9979 29.0596 18.0061 29.1167 18.0102C32.9607 12.0136 36.7985 6.01295 40.6262 0.00204828H45.5C44.0929 0.604573 43.2262 1.84446 42.3657 3.03312C39.7799 6.60113 37.2696 10.245 34.7042 13.8396C33.6357 15.3377 32.5855 16.8461 31.5271 18.3586C31.4557 18.459 31.3701 18.5492 31.3211 18.6619C33.6194 19.4652 35.6015 20.617 37.341 22.0188C37.4287 22.0885 37.655 22.2401 37.6652 22.3119C37.6713 22.3549 37.5939 22.5619 37.5796 22.6275C37.188 24.2096 36.8067 25.7856 36.4131 27.3411C36.3825 27.3759 36.3846 27.3145 36.3805 27.3083C36.2949 27.1751 36.2072 26.9988 36.1215 26.8513C35.8258 26.3451 35.4771 25.8594 35.1264 25.386C33.7438 23.5149 31.937 21.9614 29.7876 20.8465C29.6959 20.9326 29.6326 21.0494 29.5613 21.1498C27.9136 23.4985 26.2414 25.8655 24.5896 28.2305C24.0064 29.0667 23.5006 29.9418 23.0765 30.9132C22.6503 31.8928 22.2975 32.9421 22.0059 34.0406C21.859 34.598 21.7346 35.1678 21.6062 35.7457C21.4818 36.3113 21.339 36.877 21.2167 37.4508C20.7211 39.7646 20.2174 42.0886 19.7138 44.3798C20.2684 45.0684 20.8496 45.7591 21.4104 46.4538C21.4879 46.5502 21.5552 46.6506 21.649 46.7244C22.3464 43.472 23.0642 40.1847 23.7555 36.8831C23.8657 36.3544 23.9819 35.7314 23.9391 35.1022C23.8983 34.5017 23.7657 34.0611 23.4741 33.7004C23.47 33.6942 23.4089 33.643 23.4517 33.6451H30.2934C29.2126 38.207 28.0869 42.7444 26.9979 47.3412C26.6655 48.743 26.3066 50.1919 25.9722 51.6306C25.9477 51.7331 25.8927 51.8479 25.8967 51.9011C25.9008 51.9544 25.9885 52.0364 26.0599 52.1184C26.9103 53.1205 27.7667 54.1555 28.5682 55.2027C29.4308 56.3299 30.2913 57.5001 30.9683 58.7769C31.6596 60.0824 32.2164 61.5395 32.351 63.3717C32.4978 65.3534 32.145 67.1282 31.7025 68.6386C30.8072 71.6922 29.2513 74.1638 27.2059 76.0882C25.1157 78.0577 22.4932 79.398 19.1326 80.0641C18.3148 83.4353 17.4889 86.8271 16.6794 90.2414C16.6263 90.4627 16.557 90.7066 16.506 90.9689C16.4571 91.221 16.4163 91.553 16.4958 91.7621C16.5774 91.9813 16.814 92.0613 17.1443 92.0777C17.4441 92.092 17.7989 92.0777 18.1068 92.0777C21.3227 92.0777 24.404 91.9936 27.3365 91.7293C28.5111 91.6227 29.6632 91.4936 30.7848 91.3501C35.3262 90.766 39.7106 90.0139 43.8503 89.0917C43.8808 89.1142 43.8339 89.147 43.8278 89.1573C43.1426 90.3541 42.4167 91.5653 41.709 92.7622C41.4664 93.1741 41.2217 93.5942 40.9851 94H10.6391C11.3916 93.3155 11.7954 92.2396 12.0544 91.0899C12.8476 87.5792 13.5981 83.9579 14.3771 80.4452C12.7946 80.394 11.3712 80.105 10.0641 79.728C7.7903 79.0721 5.80611 78.1171 4.00138 76.9797C2.72481 76.1763 1.51147 75.2992 0.5 74.1987V74.1556C0.997576 72.2066 1.45844 70.2228 1.95806 68.28C3.02866 70.9422 4.73959 73.0797 6.82166 74.7868C7.85351 75.6312 8.99753 76.3485 10.2904 76.992C10.9226 77.3076 11.6057 77.5679 12.3337 77.7851C13.1046 78.0146 13.9325 78.2052 14.842 78.2298C14.8522 78.2298 14.8542 78.2216 14.8644 78.2196C15.7454 74.0327 16.6834 69.8498 17.5766 65.6649C18.4372 61.6297 19.3528 57.5411 20.193 53.4894C20.2215 53.3521 20.2909 53.1718 20.2786 53.098C20.2664 53.016 20.1134 52.8972 20.04 52.8152C19.6098 52.3336 19.2203 51.8848 18.8083 51.4257C18.6615 51.2638 18.5208 51.0916 18.376 50.9482C18.3658 50.9359 18.3393 50.8764 18.3108 50.9154C17.8886 52.9402 17.442 55.0224 17.0036 57.0513C16.763 58.1662 16.608 59.8897 17.2198 60.689C17.2422 60.7177 17.3156 60.7628 17.2728 60.7874H10.9511C11.4059 60.5045 11.722 60.0865 11.9565 59.5926C12.2012 59.0802 12.3358 58.4982 12.454 57.8772C13.1617 54.1575 13.7938 50.3293 14.4647 46.5932C13.6429 45.6751 12.8272 44.7672 12.0013 43.8572C11.1795 42.9494 10.3108 42.0866 9.55832 41.0885C8.81604 40.1007 8.18387 38.9981 7.69853 37.7316C7.21115 36.4589 6.89915 35.0264 6.89915 33.311C6.89915 31.5957 7.18056 30.1283 7.59045 28.7818C7.99626 27.4497 8.5856 26.2693 9.23408 25.2077C10.5637 23.0312 12.3072 21.3281 14.4219 19.9735C13.749 17.4302 13.1107 14.8008 12.4337 12.2411C12.2073 11.3824 11.9871 10.5175 11.775 9.65679C11.3549 7.95988 10.892 6.20559 10.4556 4.48614C10.0172 2.7585 9.64397 0.948874 8.44489 0L8.44082 0.00204828ZM22.7074 19.1599C21.3574 19.2234 20.1502 19.5226 19.1203 19.8977C20.0441 23.0292 20.9842 26.1401 21.908 29.2716C21.9896 29.1979 22.0324 29.0913 22.0915 29.0011C23.8962 26.2016 25.6928 23.3591 27.4853 20.5617C27.5893 20.3977 27.728 20.2194 27.8198 20.0616C27.8238 20.0534 27.8565 20.0124 27.83 19.996C26.4025 19.5103 24.6814 19.0656 22.7074 19.1599ZM12.4724 26.1442C12.1665 26.8369 11.9055 27.6362 11.7383 28.5011C11.567 29.3803 11.4671 30.3681 11.5445 31.3682C11.618 32.3088 11.8178 33.1491 12.0849 33.9197C12.3439 34.6657 12.6865 35.3912 13.0577 36.0367C13.7041 37.1639 14.4647 38.2357 15.3273 39.1764C15.4211 39.2789 15.5659 39.451 15.6618 39.5248C15.7005 39.5535 15.6679 39.5617 15.6944 39.5248C15.7128 39.5002 15.7311 39.3588 15.7474 39.2645C15.7637 39.1682 15.7801 39.0575 15.7903 38.994C16.143 36.9712 16.4938 35.0223 16.816 33.0425C16.9363 32.3027 17.0281 31.5424 16.9893 30.696C16.9547 29.9377 16.7834 29.2347 16.6121 28.5461C16.1023 26.509 15.5598 24.5088 15.0561 22.4861C15.0561 22.4799 15.0561 22.4738 15.0459 22.4758C13.9794 23.5087 13.1209 24.6789 12.4744 26.1463L12.4724 26.1442ZM22.5565 76.8342C23.8493 76.121 24.9709 75.1619 25.8417 74.0429C26.7247 72.9096 27.4486 71.5795 27.8524 69.9707C28.1297 68.8661 28.2521 67.5852 28.1766 66.3105C28.1052 65.0809 27.832 63.9291 27.4853 62.9433C26.7797 60.9411 25.7071 59.2933 24.4815 57.8383C22.8603 64.5357 21.2473 71.2414 19.6403 77.9532C20.7069 77.7154 21.6857 77.3158 22.5585 76.8342H22.5565Z" fill="#1D1D1D"/>
</svg>
